<svg xmlns="http://www.w3.org/2000/svg" width="24" height="24" viewBox="0 0 24 24" role="presentation" fill="none" fill-rule="evenodd" stroke="none" stroke-width="1" stroke-linecap="butt" stroke-linejoin="miter" aria-label="MetaMask Icon"><path fill="#E98400" d="M18.401 0L12.252 2.166 7.163 2.166 1.013 0 0 2.817 0.6 5.639 0.209 6.056 0.876 6.518 0.416 6.782 0.969 7.441 0.623 7.639 1.521 8.584 0.209 12.431 1.498 16.431 5.759 15.381 8.452 17.4 10.962 17.4 13.655 15.381 17.916 16.431 19.206 12.431 17.893 8.584 18.791 7.639 18.446 7.441 18.999 6.782 18.538 6.518 19.206 6.056 18.814 5.639 19.414 2.817z" transform="translate(-165 -500) translate(161 498) translate(4 2) translate(2 3)"></path><path fill="#6F3A00" d="M1.013 0L0 2.817 0.6 5.639 0.209 6.056 0.876 6.518 0.416 6.782 0.969 7.441 0.623 7.639 1.521 8.584 5.451 7.412 8.276 5.185z" transform="translate(-165 -500) translate(161 498) translate(4 2) translate(2 3)"></path><path fill="#D77400" d="M8.276 5.185L7.163 2.166 1.013 0zM4.269 9.258L8.567 9.434 8.276 5.185 5.451 7.412z" transform="translate(-165 -500) translate(161 498) translate(4 2) translate(2 3)"></path><path fill="#C15E00" d="M4.269 9.258L6.127 10.987 7.508 10.343 8.184 11.574 8.567 9.434z" transform="translate(-165 -500) translate(161 498) translate(4 2) translate(2 3)"></path><path fill="#273349" d="M6.127 10.987L8.184 11.574 7.508 10.343z" transform="translate(-165 -500) translate(161 498) translate(4 2) translate(2 3)"></path><path fill="#D77400" d="M8.89 14.167L8.184 11.574 8.567 9.434zM4.269 9.258L6.127 12.673 6.127 10.987z" transform="translate(-165 -500) translate(161 498) translate(4 2) translate(2 3)"></path><path fill="#E98400" d="M1.521 8.584L5.451 7.412 4.319 9.258 6.127 12.673 0.209 12.431z" transform="translate(-165 -500) translate(161 498) translate(4 2) translate(2 3)"></path><path fill="#C15E00" d="M3.716 12.574L5.759 15.381 6.127 12.673z" transform="translate(-165 -500) translate(161 498) translate(4 2) translate(2 3)"></path><path fill="#E98400" d="M8.89 14.167L8.414 14.46 6.127 12.673 6.127 10.987 8.184 11.574z" transform="translate(-165 -500) translate(161 498) translate(4 2) translate(2 3)"></path><path fill="#D77400" d="M8.414 14.46L5.759 15.381 6.127 12.673z" transform="translate(-165 -500) translate(161 498) translate(4 2) translate(2 3)"></path><path fill="#D3C1B0" d="M5.759 15.381L8.364 14.477 8.189 16.184 8.245 16.552z" transform="translate(-165 -500) translate(161 498) translate(4 2) translate(2 3)"></path><path fill="#D77400" d="M0.209 12.431L1.498 16.431 5.759 15.381 3.716 12.574z" transform="translate(-165 -500) translate(161 498) translate(4 2) translate(2 3)"></path><path fill="#6F3A00" d="M18.401 0L11.139 5.185 13.963 7.412 17.893 8.584 18.791 7.639 18.446 7.441 18.999 6.782 18.538 6.518 19.206 6.056 18.814 5.639 19.414 2.817z" transform="translate(-165 -500) translate(161 498) translate(4 2) translate(2 3)"></path><path fill="#D77400" d="M12.252 2.166L11.139 5.185 18.401 0z" transform="translate(-165 -500) translate(161 498) translate(4 2) translate(2 3)"></path><path fill="#E98400" d="M9.888 2.166L9.527 2.166 7.163 2.166 8.276 5.185 8.567 9.434 8.89 14.167 9.527 14.167 9.888 14.167 10.525 14.167 10.847 9.434 11.139 5.185 12.252 2.166z" transform="translate(-165 -500) translate(161 498) translate(4 2) translate(2 3)"></path><path fill="#D77400" d="M15.145 9.258L10.847 9.434 11.139 5.185 13.963 7.412z" transform="translate(-165 -500) translate(161 498) translate(4 2) translate(2 3)"></path><path fill="#C15E00" d="M15.145 9.258L13.288 10.987 11.906 10.343 11.231 11.574 10.847 9.434z" transform="translate(-165 -500) translate(161 498) translate(4 2) translate(2 3)"></path><path fill="#273349" d="M13.288 10.987L11.231 11.574 11.906 10.343z" transform="translate(-165 -500) translate(161 498) translate(4 2) translate(2 3)"></path><path fill="#D77400" d="M10.525 14.167L11.231 11.574 10.847 9.434zM15.145 9.258L13.288 12.673 13.288 10.987z" transform="translate(-165 -500) translate(161 498) translate(4 2) translate(2 3)"></path><path fill="#E98400" d="M17.893 8.584L13.963 7.412 15.095 9.258 13.288 12.673 19.206 12.431z" transform="translate(-165 -500) translate(161 498) translate(4 2) translate(2 3)"></path><path fill="#C15E00" d="M15.698 12.574L13.655 15.381 13.288 12.673z" transform="translate(-165 -500) translate(161 498) translate(4 2) translate(2 3)"></path><path fill="#E98400" d="M10.525 14.167L11.001 14.46 13.288 12.673 13.288 10.987 11.231 11.574z" transform="translate(-165 -500) translate(161 498) translate(4 2) translate(2 3)"></path><path fill="#D77400" d="M11.001 14.46L13.655 15.381 13.288 12.673z" transform="translate(-165 -500) translate(161 498) translate(4 2) translate(2 3)"></path><path fill="#151516" d="M11.001 14.46L10.525 14.167 9.888 14.167 9.527 14.167 8.89 14.167 8.414 14.46 8.189 16.184 8.414 15.97 9.527 15.97 9.888 15.97 11.001 15.97 11.225 16.184z" transform="translate(-165 -500) translate(161 498) translate(4 2) translate(2 3)"></path><path fill="#D3C1B0" d="M13.655 15.381L11.05 14.477 11.225 16.184 11.169 16.552z" transform="translate(-165 -500) translate(161 498) translate(4 2) translate(2 3)"></path><path fill="#BDAD9C" d="M11.169 16.541L11.225 16.173 11.001 15.959 9.888 15.959 9.527 15.959 8.414 15.959 8.189 16.173 8.245 16.541 5.759 15.37 8.452 17.4 9.527 17.4 9.888 17.4 10.962 17.4 13.655 15.37z" transform="translate(-165 -500) translate(161 498) translate(4 2) translate(2 3)"></path><path fill="#D77400" d="M19.206 12.431L17.916 16.431 13.655 15.381 15.698 12.574z" transform="translate(-165 -500) translate(161 498) translate(4 2) translate(2 3)"></path></svg>