<svg xmlns="http://www.w3.org/2000/svg" width="24" height="24" viewBox="0 0 24 24" role="presentation" fill="none" fill-rule="evenodd" stroke="none" stroke-width="1" stroke-linecap="butt" stroke-linejoin="miter" aria-label="Wallet Connect Icon"><defs><path id="0wu156nh9a" d="M0 0.052L21.787 0.052 21.787 8.115 0 8.115z"></path><path id="3551dqrc0c" d="M0.004 0.035L14.026 0.035 14.026 5.287 0.004 5.287z"></path></defs><g transform="translate(-165 -544) translate(161 498) translate(0 44) translate(4 2) translate(1 5) translate(0 5.579)"><mask id="2keq8tp0gb" fill="#fff"><use href="#0wu156nh9a"></use></mask><path fill="#3497FE" d="M15.214 8.002l-4.08-3.953c-.155-.15-.402-.149-.555.003L6.58 7.99c-.155.153-.404.153-.559 0L.118 2.17c-.156-.154-.158-.406-.004-.562L1.507.195c.154-.156.406-.158.562-.004L6.023 4.09c.155.152.403.152.558 0L10.563.166c.153-.151.4-.152.555-.002l4.076 3.95c.156.15.403.15.557-.003L19.715.193c.156-.154.408-.153.562.003l1.395 1.411c.154.156.153.408-.004.562L15.77 8c-.154.153-.401.154-.556.003" mask="url(#2keq8tp0gb)"></path></g><g transform="translate(-165 -544) translate(161 498) translate(0 44) translate(4 2) translate(1 5) translate(3.835 .021)"><mask id="ti9r49pqfd" fill="#fff"><use href="#3551dqrc0c"></use></mask><path fill="#3497FE" d="M7.01.034C4.189.034 1.676 1.311.057 3.3c-.074.09-.07.223.01.309l1.496 1.605c.1.108.273.096.361-.023C3.026 3.7 4.892 2.718 7.01 2.718c2.112 0 3.975.976 5.077 2.46.088.118.258.13.36.025l1.514-1.58c.082-.086.087-.22.013-.311C12.354 1.316 9.837.034 7.01.034" mask="url(#ti9r49pqfd)"></path></g></svg>